<svg width="265" height="222" viewBox="0 0 265 222" fill="none" xmlns="http://www.w3.org/2000/svg">
<g clip-path="url(#clip0_233_1830)">
<rect width="130.462" height="127.322" rx="17" transform="matrix(0.997087 -0.0762774 0.0761303 0.997098 72.6825 17.399)" fill="#E976DD" fill-opacity="0.9"/>
<path d="M177.936 221.575C172.71 221.575 167.487 221.582 162.261 221.575C159.839 221.572 159.877 221.551 159.519 219.195C158.227 210.717 156.908 202.246 155.602 193.772C152.67 174.719 149.745 155.666 146.817 136.61C146.783 136.382 146.728 136.154 146.728 135.926C146.724 134.178 145.98 133.673 144.182 133.87C139.107 134.433 134.009 134.817 128.914 135.162C127.439 135.262 126.898 135.674 126.861 137.28C126.23 164.275 125.527 191.267 124.838 218.259C124.773 220.777 124.759 220.777 122.169 220.867C111.727 221.226 101.285 221.589 90.8436 221.955C90.0443 221.983 89.1452 222.2 88.7318 221.261C88.3115 220.307 88.8972 219.627 89.5655 219.015C91.6462 217.118 93.6788 215.163 95.8215 213.339C96.7413 212.555 97.0858 211.719 97.1203 210.534C97.6164 192.061 98.1434 173.586 98.6739 155.113C98.8221 149.935 98.9633 144.753 99.1976 139.577C99.2562 138.258 98.9978 137.729 97.5578 137.791C93.2585 137.971 88.9557 137.746 84.6495 137.992C79.1479 138.306 73.7807 133.024 73.1399 126.816C72.4199 119.83 71.6827 112.848 71.0488 105.856C70.9214 104.453 70.5149 104.101 69.0852 104.125C61.4064 104.239 54.1789 102.38 47.5267 98.5285C43.279 96.0687 40.7711 92.0647 38.6766 87.7705C36.6061 83.5281 35.0318 79.0784 33.2404 74.7186C32.4929 72.8945 32.107 70.9633 31.8004 69.039C30.6188 61.6874 25.7614 57.559 19.4399 54.7192C16.4635 53.3823 13.27 52.9781 10.0283 52.9297C8.93278 52.9124 7.84762 52.8053 6.80724 52.4529C4.79883 51.7689 3.81013 50.387 3.97204 48.2693C4.03405 47.4505 3.9996 47.0809 3.06602 46.8701C0.0585705 46.1895 -0.76133 44.2307 0.730337 41.5188C0.930145 41.156 1.13684 40.8935 0.923255 40.434C-0.27559 37.8429 1.88095 35.8392 4.05472 35.3556C7.48246 34.5955 10.9515 34.136 14.4688 34.2051C15.9467 34.2328 17.2627 34.098 18.7234 33.4278C21.6791 32.0701 24.9725 32.267 28.0179 33.1756C39.6825 36.658 48.3638 43.4258 52.2635 55.5173C53.9171 60.6406 55.2709 65.9056 58.0958 70.604C60.0456 73.8445 62.6914 75.7895 66.5394 75.9934C67.8071 76.0625 68.2963 75.717 68.193 74.3593C66.9562 57.6557 65.8435 40.9418 64.4827 24.2452C64.2002 20.787 63.9867 17.4774 65.5334 14.3025C67.2559 10.7718 69.8018 8.61951 74.0218 8.32932C91.4843 7.12017 108.933 5.69682 126.392 4.37712C142.532 3.15415 158.675 1.97264 174.814 0.749671C177.098 0.576936 179.379 0.4042 181.656 0.076002C184.76 -0.373111 187.42 0.960409 189.714 2.89159C193.248 5.86265 195.16 9.53156 195.405 14.3751C195.722 20.5694 196.762 26.7257 197.503 32.8958C198.409 40.4374 199.318 47.9791 200.238 55.5207C200.569 58.2292 200.72 58.2258 203.366 57.4657C206.722 56.4984 208.589 54.1527 209.894 51.1091C212.061 46.0548 212.471 40.6136 213.315 35.2899C214.225 29.5516 215.782 24.0794 219.454 19.5606C224.801 12.9828 231.002 7.50364 239.824 6.14594C241.705 5.85574 243.607 5.68991 245.374 6.67451C245.901 6.96816 246.387 6.77469 246.873 6.65032C250.814 5.64846 254.834 5.60009 258.854 5.69682C262.13 5.77628 263.619 7.38618 263.395 10.4747C263.36 10.9618 263.557 11.1864 263.815 11.5042C265.81 13.964 265.279 16.2303 262.378 17.3012C261.469 17.6363 261.304 17.9542 261.545 18.8973C262.137 21.2016 261.321 22.8011 259.185 23.8272C258.251 24.2763 257.245 24.5008 256.222 24.6908C248.602 26.1038 242.57 29.8626 238.577 36.6787C237.375 38.7308 236.772 40.9211 236.734 43.2496C236.596 51.4062 234.409 59.162 232.173 66.9005C229.83 75.0019 224.019 79.8626 216.65 83.193C212.661 84.9963 208.592 86.5613 204.207 87.0657C203.315 87.1694 203.087 87.501 203.073 88.3578C202.908 98.4283 202.708 108.499 202.515 118.569C202.419 123.551 196.314 130.108 192.07 130.122C187.103 130.136 182.142 131.072 177.174 131.552C176.134 131.652 175.848 131.956 176.02 133.045C177.477 142.134 178.866 151.237 180.288 160.333C182.903 177.047 185.535 193.758 188.126 210.479C188.305 211.625 188.722 212.5 189.573 213.298C191.543 215.142 193.452 217.056 195.343 218.984C195.877 219.53 196.666 220.09 196.235 221.04C195.822 221.959 194.926 221.813 194.127 221.813C188.729 221.813 183.334 221.813 177.936 221.813V221.568V221.575ZM192.432 219.295C190.692 217.63 189.345 216.224 187.874 214.959C186.575 213.84 185.949 212.51 185.725 210.814C185.163 206.595 184.471 202.391 183.813 198.183C182.276 188.348 180.774 178.505 179.176 168.68C177.143 156.188 175.448 143.644 173.161 131.193C172.954 130.06 173.316 129.338 174.494 129.296C180.065 129.103 185.556 128.07 191.106 127.731C193.686 127.572 195.56 126.505 197.183 124.656C198.946 122.646 200.018 120.418 200.059 117.654C200.19 109.076 200.414 100.501 200.614 91.9265C200.645 90.5964 200.562 89.3009 200.211 88.0019C199.721 86.1779 200.359 85.1449 202.191 84.9998C207.759 84.5611 212.737 82.3604 217.639 79.9317C222.961 77.2958 227.26 73.5785 229.21 67.7642C231.718 60.2813 233.957 52.6706 234.137 44.7316C234.33 36.3574 238.708 30.785 245.154 26.3215C248.785 23.8064 252.994 22.8737 257.197 21.9029C258.193 21.6749 259.336 21.3467 259.247 19.9786C259.161 18.6589 258.265 17.9818 257.032 17.6743C254.917 17.1492 252.815 17.2563 250.728 17.7987C248.895 18.2754 247.076 18.7971 245.25 19.298C244.427 19.5226 243.689 19.3671 243.41 18.5104C243.107 17.581 243.776 17.1285 244.551 16.9074C246.483 16.3581 248.416 15.8088 250.369 15.3424C252.919 14.7378 255.53 14.5547 258.024 15.4184C259.299 15.8571 260.346 15.6948 261.483 15.2595C262.027 15.0522 262.623 14.8933 262.578 14.1367C262.537 13.4285 262.024 13.2246 261.428 13.0588C259.123 12.4197 256.763 12.4542 254.417 12.513C251.134 12.5959 247.916 13.2143 244.719 13.9294C243.948 14.1021 243.149 14.116 242.883 13.1728C242.622 12.2262 243.297 11.8255 244.068 11.5906C244.616 11.4247 245.178 11.2935 245.739 11.1725C250.369 10.181 255.037 9.73884 259.767 10.2052C260.284 10.257 260.99 10.5956 261.186 9.73193C261.372 8.92353 260.77 8.61951 260.163 8.37077C259.454 8.08058 258.706 8.12894 257.958 8.11167C252.037 7.98039 246.318 9.11354 240.71 10.9134C239.996 11.1415 239.294 11.4731 238.574 10.9825C237.805 10.4574 238.312 9.66975 238.346 8.93735C237.909 9.02371 237.626 9.06517 237.351 9.13772C237.017 9.22754 236.676 9.307 236.365 9.44864C225.7 14.3647 218.169 21.8649 216.04 33.9495C214.986 39.94 214.552 46.0617 212.275 51.8138C210.401 56.5399 207.149 59.4764 202.123 60.3539C199.284 60.8513 198.333 60.1328 198.078 57.3379C198.071 57.2792 198.068 57.2239 198.061 57.1652C196.986 48.3107 195.908 39.4563 194.837 30.6019C194.179 25.1745 193.428 19.7541 192.925 14.3129C192.735 12.2781 192.58 10.2985 191.464 8.56424C189.3 5.19934 186.575 2.22829 182.287 2.52885C174.101 3.09888 165.926 3.80364 157.741 4.41512C140.572 5.69682 123.409 7.05453 106.239 8.36732C95.4219 9.19299 84.6047 9.98758 73.7876 10.8133C71.2659 11.0067 69.3539 12.1744 68.1172 14.4476C66.7151 17.0248 66.5704 19.685 66.8081 22.6007C67.9587 36.8273 68.9061 51.071 69.9223 65.3114C70.4012 72.0274 70.8697 78.7468 71.3451 85.4662C71.4106 86.3886 71.321 87.3628 70.1704 87.3801C69.1575 87.3974 68.9819 86.4819 68.9267 85.6251C68.8062 83.6732 68.6374 81.7213 68.5685 79.7659C68.534 78.7813 68.3032 78.4117 67.1801 78.4186C62.5949 78.4358 58.9743 76.5116 56.5214 72.5801C54.9368 70.0409 53.6483 67.3566 52.7079 64.4892C51.2369 60.0118 50.0105 55.4274 47.9366 51.1885C44.7328 44.6315 39.183 40.51 32.8201 37.3938C30.2123 36.1156 27.4632 35.1725 24.4282 35.0792C25.2929 36.9931 24.9243 37.5666 23.0502 37.4284C22.6506 37.4007 22.251 37.3489 21.8548 37.2833C16.2499 36.3574 10.6553 36.4852 5.07098 37.4802C4.49912 37.5838 3.95482 37.7497 3.48286 38.1021C3.04879 38.4233 2.66296 38.7964 2.90066 39.3976C3.1797 40.1023 3.72401 39.7983 4.21664 39.6981C6.0149 39.3354 7.80284 38.8863 9.61833 38.6479C12.8738 38.2195 16.15 38.299 19.4192 38.5028C20.2047 38.5512 20.9936 38.8206 20.9454 39.781C20.8937 40.7449 20.1082 40.8969 19.2987 40.8693C19.1264 40.8624 18.9542 40.8555 18.7819 40.8382C15.8537 40.5307 12.9255 40.624 10.0179 40.9729C7.68571 41.2527 5.37414 41.726 3.19004 42.645C2.23578 43.0457 1.8844 43.9785 2.79387 44.4414C3.76879 44.9355 4.97797 45.3673 6.22849 44.6487C10.7758 42.0301 15.6057 43.2358 20.37 43.7505C20.9178 43.8092 21.3071 44.2653 21.314 44.8387C21.3209 45.502 20.8661 45.9132 20.2495 46.003C19.75 46.0755 19.2229 46.003 18.713 45.9339C16.5496 45.6541 14.3896 45.3604 12.1986 45.4157C10.6243 45.4537 9.1257 45.8372 7.72705 46.5454C6.77279 47.0256 6.23538 47.8685 6.36629 48.9395C6.49375 49.9897 7.37222 50.2454 8.27135 50.3456C9.01202 50.4285 9.75268 50.5425 10.4968 50.5494C14.5791 50.6012 18.5132 51.4165 22.1166 53.3304C27.4288 56.1495 32.1277 59.846 33.4678 66.0265C34.9698 72.9567 37.5638 79.4204 40.4163 85.8289C42.4867 90.479 45.0945 94.7456 49.821 97.1259C56.2734 100.373 63.1082 102.142 70.3805 101.956C72.6645 101.897 73.0572 102.187 73.3053 104.522C73.6119 107.383 73.822 110.254 74.1562 113.114C74.7418 118.144 74.9175 123.219 75.8235 128.211C76.4643 131.742 80.457 135.566 83.6057 135.56C89.1107 135.549 94.6192 135.428 100.124 135.342C101.337 135.325 101.998 135.767 101.781 137.093C101.709 137.546 101.65 138.005 101.637 138.462C100.924 162.113 100.169 185.76 99.5731 209.414C99.5042 212.157 98.9323 214.234 96.6414 215.844C95.291 216.794 94.1576 218.058 92.9243 219.177C100.91 219.25 108.651 219.015 116.391 218.673C118.372 218.587 121.09 219.364 122.138 218.058C123.154 216.794 122.558 214.203 122.61 212.189C123.257 186.579 123.905 160.966 124.508 135.356C124.546 133.77 125.066 133.103 126.678 132.982C132.917 132.516 139.145 131.936 145.381 131.414C148.171 131.179 148.454 131.414 148.867 134.105C151.516 151.279 154.165 168.455 156.808 185.629C158.444 196.266 160.087 206.899 161.679 217.54C161.865 218.787 162.306 219.26 163.632 219.236C167.018 219.171 170.405 219.291 173.791 219.302C179.81 219.319 185.824 219.305 192.428 219.305L192.432 219.295Z" fill="white"/>
<path d="M104.089 51.4822C105.578 51.5167 107.09 51.4683 108.52 51.9589C109.498 52.294 109.712 51.9382 109.657 51.033C109.605 50.2143 109.805 49.4197 110.294 48.746C110.662 48.2416 111.169 47.9929 111.796 48.29C112.344 48.5491 112.53 49.0466 112.392 49.589C111.572 52.7811 112.695 55.0682 115.551 56.5917C116.212 56.9441 116.405 57.5521 116.102 58.205C115.778 58.896 115.134 58.9824 114.479 58.7371C113.318 58.3052 112.23 57.6212 111.686 56.5433C110.952 55.0854 109.767 54.702 108.344 54.3634C104.348 53.4168 100.489 53.6966 96.7379 55.3653C95.6769 55.8351 94.764 56.5295 93.9234 57.3241C93.4032 57.8147 92.8279 57.9978 92.2629 57.4105C91.7289 56.8577 91.8357 56.2566 92.2801 55.7004C93.1241 54.6467 94.2369 53.9246 95.4288 53.3443C98.1607 52.0107 101.041 51.344 104.093 51.4822H104.089Z" fill="white"/>
<path d="M94.5125 36.4334C94.4436 37.5389 94.509 38.7205 93.2792 38.6963C92.0286 38.6721 91.66 37.6046 91.7427 36.4576C91.8082 35.5214 91.6428 34.2362 93.038 34.3019C94.3299 34.3641 94.4229 35.5801 94.5125 36.43V36.4334Z" fill="white"/>
<path d="M111.52 35.8496C111.5 36.1985 111.493 36.5993 111.455 36.9965C111.4 37.5458 111.2 38.0019 110.58 38.1124C109.898 38.2299 109.45 37.8637 109.24 37.2936C108.809 36.1121 109.143 34.9272 109.412 33.7698C109.508 33.3553 109.932 33.186 110.38 33.2309C110.824 33.2724 111.169 33.5176 111.265 33.9288C111.403 34.5368 111.438 35.1725 111.52 35.8496V35.8496Z" fill="white"/>
</g>
<defs>
<clipPath id="clip0_233_1830">
<rect width="265" height="222" fill="white"/>
</clipPath>
</defs>
</svg>
