<svg width="263" height="273" viewBox="0 0 263 273" fill="none" xmlns="http://www.w3.org/2000/svg">
<rect x="60.0295" y="12.2852" width="163.915" height="153.892" rx="20" transform="rotate(-4.04268 60.0295 12.2852)" fill="#E976DD" fill-opacity="0.9"/>
<g clip-path="url(#clip0_487_5536)">
<path d="M14.0664 53.3726C13.4146 52.4406 12.9128 51.7807 12.4754 51.0838C10.9315 48.6176 11.1116 46.0649 12.9343 44.2214C14.2809 42.8564 17.2528 42.6626 19.5429 43.9823C24.0545 46.5762 27.5025 50.1559 28.8705 55.0923C30.0327 59.2905 31.2464 63.2496 33.931 66.9777C37.1775 71.4852 38.1981 77.1186 40.0336 82.3107C41.3245 85.9728 42.7869 89.5236 44.8883 92.8228C47.2642 96.555 50.6821 98.5799 55.2709 98.749C56.6132 98.7985 57.235 98.4067 57.1235 96.9839C56.0557 83.35 55.0264 69.7119 53.9972 56.0738C53.4997 49.496 53.2424 42.8894 52.449 36.3446C51.9859 32.5464 51.9859 28.9626 53.6412 25.4737C55.7812 20.9621 59.0663 18.3103 64.5856 17.9516C86.1828 16.5329 107.763 14.8379 129.351 13.2708C149.516 11.8068 169.681 10.3881 189.846 8.91587C192.689 8.70967 195.528 8.50347 198.363 8.11169C202.227 7.5797 205.538 9.17156 208.389 11.4769C212.785 15.0235 215.157 19.4073 215.47 25.1851C215.877 32.7155 217.194 40.2005 218.133 47.7021C219.248 56.6388 220.406 65.5714 221.478 74.5122C221.641 75.869 222.031 76.4753 223.597 76.6897C235.836 78.3599 246.673 82.8138 255.096 91.8537C264.891 102.366 265.633 115.723 257.069 127.176C256.661 127.72 256.241 128.157 256.447 129.007C257.022 131.403 256.404 133.63 254.998 135.667C254.624 136.207 253.955 136.661 254.895 137.358C256.121 138.269 255.928 139.511 255.478 140.744C254.775 142.678 253.501 144.241 251.957 145.598C248.659 148.493 245.044 150.864 240.76 152.287C234.846 154.25 229.159 157.05 222.615 156.448C221.748 156.37 221.375 156.955 220.929 157.504C218.193 160.869 215.002 163.195 210.204 163.389C204.577 163.62 198.976 164.473 193.358 164.968C191.703 165.112 191.085 165.541 191.39 167.315C193.208 177.955 194.898 188.619 196.639 199.276C199.898 219.228 203.179 239.175 206.391 259.135C206.635 260.661 207.253 261.783 208.415 262.826C210.92 265.078 213.321 267.433 215.727 269.78C216.31 270.349 217.005 270.992 216.491 271.94C216.015 272.819 215.135 272.823 214.256 272.815C200.606 272.712 186.955 272.6 173.305 272.522C171.632 272.514 171.079 271.916 170.835 270.233C169.346 260.1 167.67 249.988 166.044 239.872C162.36 216.926 158.689 193.976 154.976 171.03C154.328 167.038 155.023 167.64 150.811 167.979C144.829 168.457 138.855 169.014 132.864 169.331C130.724 169.447 130.196 170.135 130.145 172.152C129.364 204.307 128.489 236.462 127.636 268.612C127.559 271.536 127.499 271.565 124.471 271.664C111.4 272.093 98.3323 272.526 85.2608 272.967C84.2572 273 83.1508 273.231 82.6705 272.081C82.1859 270.926 82.9492 270.138 83.7726 269.417C86.3629 267.153 88.9103 264.843 91.5564 262.637C92.6071 261.762 93.0917 260.847 93.1303 259.482C93.5806 243.064 94.0866 226.642 94.5884 210.225C94.9486 198.41 95.2702 186.59 95.7248 174.779C95.7977 172.923 95.2917 172.42 93.3961 172.498C88.1169 172.721 82.8291 172.465 77.5414 172.738C70.7654 173.084 64.1096 166.853 63.2948 159.541C62.3684 151.206 61.4764 142.868 60.683 134.521C60.5244 132.834 60.1255 132.261 58.1657 132.302C48.9067 132.483 40.188 130.281 32.0698 126.029C26.4175 123.068 23.0853 118.124 20.3492 112.733C17.7803 107.665 15.799 102.362 13.6033 97.1447C13.1487 96.0684 12.7799 94.9343 12.5869 93.7919C12.0251 90.4804 10.5627 87.4121 9.86795 84.1418C9.61063 82.9252 8.87729 82.3478 7.66363 81.9643C2.11424 80.2116 -1.26514 75.6669 0.471721 68.318C0.703303 67.3406 0.531761 66.2766 0.540338 65.2497C0.570358 61.4886 3.33219 58.0492 7.12327 57.0842C7.6765 56.944 8.24687 56.9027 8.62427 56.4037C9.91083 54.7047 11.6992 53.785 14.0836 53.3808L14.0664 53.3726ZM253.745 131.242C252.729 131.428 252.309 132.034 251.777 132.467C248.633 135.003 245.147 136.995 241.386 138.558C240.386 138.97 239.233 139.535 238.628 138.207C238.049 136.937 239.1 136.397 240.163 135.968C242.878 134.879 245.395 133.452 247.801 131.832C261.932 122.326 264.128 106.189 252.815 93.7301C244.954 85.0697 234.554 81.0983 223.001 79.3785C221.675 79.1806 220.102 80.1167 219.201 79.1723C218.253 78.1785 218.841 76.5412 218.665 75.1927C216.671 59.7854 214.814 44.3617 212.764 28.9626C212.292 25.4119 212.888 21.6219 210.671 18.3722C207.819 14.1863 204.38 10.6026 198.684 11.0067C174.887 12.6893 151.107 14.5658 127.319 16.3226C106.236 17.8814 85.145 19.3702 64.0581 20.9043C60.9189 21.1312 58.5431 22.5333 57.0035 25.251C55.258 28.3275 55.0822 31.503 55.3781 34.9837C56.8105 51.9663 57.9898 68.9696 59.255 85.9646C59.8468 93.9156 60.43 101.863 61.0133 109.814C61.0905 110.865 61.1762 112.123 59.7653 112.272C58.1785 112.441 58.0799 111.129 58.0027 109.999C57.844 107.735 57.6468 105.475 57.5696 103.211C57.531 102.032 57.2308 101.599 55.837 101.603C50.1289 101.623 45.6216 99.3222 42.5725 94.6332C40.5997 91.6021 39.0001 88.3936 37.825 84.9748C36.0968 79.96 34.2441 74.9824 32.3528 70.0212C30.9805 66.4168 28.476 63.662 25.058 61.6742C21.7129 59.7318 17.686 59.9009 14.5982 62.1196C13.2173 63.1094 12.351 65.6291 13.2173 66.7096C14.4353 68.2314 15.932 67.3447 17.2786 66.788C18.4579 66.3013 19.5772 65.6827 20.7394 65.159C21.387 64.8662 22.0689 64.6517 22.8108 64.7672C23.7243 64.9116 24.5262 65.2538 24.5219 66.2766C24.5219 67.1756 23.8915 67.6251 22.9824 67.6499C21.2412 67.6994 21.0482 68.2561 21.8287 69.7779C23.4498 72.9534 21.9317 75.5267 18.295 76.1206C17.1585 76.3062 16.0006 76.3185 14.8984 75.9762C14.1436 75.7412 13.5604 75.8237 12.9128 76.2773C10.3483 78.0877 7.83088 77.6588 5.38212 76.0134C4.79887 75.6216 4.23707 75.1968 3.6667 74.7885C4.51154 77.6877 6.8488 78.7971 9.4348 79.4528C10.76 79.7909 11.6263 80.4054 12.0766 81.5808C12.7456 83.317 13.629 85.0326 13.9464 86.8347C15.4345 95.19 18.9897 102.836 22.5363 110.482C24.9851 115.76 28.0214 120.689 33.5279 123.53C41.7276 127.757 50.5235 129.877 59.8639 129.683C62.63 129.625 63.1318 129.959 63.432 132.595C63.8308 136.075 64.0967 139.572 64.5213 143.053C65.2546 149.054 65.4648 155.116 66.597 161.071C67.4161 165.38 72.5752 169.859 76.5378 169.822C82.5375 169.764 88.5415 169.715 94.5412 169.678C98.8298 169.653 98.8383 169.669 98.7054 173.715C98.3709 183.881 98.0106 194.046 97.689 204.212C97.1015 222.964 96.5096 241.716 96.025 260.472C95.9864 262.022 95.5447 263.02 94.3739 263.981C92.1739 265.783 90.0768 267.705 87.6238 269.854C88.3485 269.932 88.6015 269.994 88.8546 269.986C100.352 269.59 111.85 269.177 123.347 268.815C124.437 268.782 124.638 268.332 124.651 267.429C124.677 265.301 124.797 263.169 124.853 261.041C125.65 230.606 126.461 200.175 127.194 169.74C127.246 167.636 127.975 166.849 130.153 166.696C137.92 166.16 145.674 165.459 153.436 164.84C156.588 164.589 157.03 164.935 157.506 167.892C159.517 180.384 161.533 192.871 163.535 205.363C166.855 226.069 170.183 246.776 173.459 267.487C173.699 268.992 174.102 269.701 175.934 269.701C187.084 269.693 198.23 269.833 209.38 269.899C209.959 269.899 210.645 270.196 211.216 269.544C209.397 267.779 207.656 265.965 205.769 264.307C204.418 263.123 203.754 261.754 203.483 260.043C202.223 251.96 200.885 243.889 199.568 235.81C195.833 212.872 192.097 189.935 188.358 166.997C187.65 162.659 187.65 162.708 192.226 162.275C198.552 161.673 204.86 160.885 211.194 160.37C214.376 160.11 216.28 158.337 218.292 156.081C217.743 155.904 217.494 155.809 217.241 155.739C207.262 152.901 203.23 145.994 205.889 136.265C207.982 128.619 212.408 122.227 217.949 116.589C220.706 113.785 222.855 111.166 221.521 107.067C221.212 106.11 221.482 105.026 222.855 104.951C224.051 104.89 224.373 105.772 224.463 106.741C224.622 108.453 224.785 110.16 224.935 111.872C224.991 112.494 225.021 113.162 224.42 113.571C221.598 115.48 220.093 118.466 217.953 120.924C213.326 126.24 209.556 132.05 208.342 139.061C207.176 145.8 210.452 151 216.979 152.724C219.613 153.421 222.327 153.528 225.046 153.516C231.934 153.483 237.873 150.46 243.86 147.779C247.085 146.336 249.864 144.055 251.978 141.193C252.274 140.793 252.806 140.241 252.309 139.75C251.923 139.37 251.382 139.733 250.941 139.96C249.054 140.938 247.167 141.907 245.275 142.868C244.259 143.383 243.213 143.853 242.033 143.816C241.257 143.791 240.618 143.428 240.468 142.653C240.305 141.832 240.837 141.338 241.6 141.148C244.563 140.41 247.004 138.665 249.59 137.242C251.88 135.98 253.226 133.906 253.75 131.234L253.745 131.242ZM27.0479 59.4596C26.3446 54.1067 22.8666 48.9847 18.4193 46.6381C17.2871 46.0401 15.962 45.4257 14.8984 46.5474C13.8649 47.6402 14.401 48.8816 15.2201 49.9291C16.854 52.0241 18.2564 54.2469 19.3457 56.6388C19.6501 57.3069 20.0361 57.5791 20.778 57.5832C22.9695 57.5956 24.9594 58.3008 27.0522 59.4555L27.0479 59.4596ZM6.14119 60.4948C5.67803 60.8205 5.44645 60.9484 5.26633 61.1216C2.33724 63.9177 3.07487 70.5367 6.6258 73.3121C7.40632 73.9225 8.22972 74.4751 9.2847 74.5122C9.7736 74.5287 10.3611 74.6195 10.6528 74.1452C11.0173 73.5596 10.3483 73.3163 10.0609 72.9987C8.56423 71.3697 7.61217 69.4809 7.02035 67.4024C6.40708 65.2373 6.03398 63.0434 6.14119 60.4989V60.4948ZM9.85079 65.5673C10.6313 61.4062 11.4418 60.3133 14.9327 58.5853C15.5417 58.2843 16.6868 58.3709 16.3694 57.2079C16.0864 56.1728 15.0399 56.2182 14.2637 56.1604C13.2645 56.0862 12.3553 56.5027 11.5834 57.212C8.99737 59.5875 8.43128 62.2021 9.85079 65.5673ZM11.3218 69.4768C12.9514 72.4791 15.5631 73.8524 18.1191 73.2503C19.1098 73.0152 19.7059 72.4997 19.3242 71.5058C19.0111 70.6852 18.8696 69.3985 17.433 69.8686C15.3873 70.5367 13.4232 70.3552 11.3218 69.4809V69.4768Z" fill="white"/>
<path d="M100.112 74.4005C96.561 74.219 93.0787 73.621 89.9566 71.7116C88.7258 70.9611 87.6965 70.029 86.9203 68.8537C86.4142 68.0825 86.307 67.2825 87.1948 66.6721C88.031 66.0947 88.6186 66.5608 89.2147 67.1587C93.4132 71.3652 100.193 72.7426 105.747 70.5322C107.857 69.6909 109.525 68.565 109.191 65.9751C109.114 65.3854 109.337 64.7544 109.465 64.1482C109.667 63.1873 110.134 62.3749 111.309 62.5811C112.493 62.7873 112.66 63.707 112.407 64.6678C112.081 65.9009 112.09 67.1051 112.39 68.3341C113.068 71.1384 114.774 72.722 117.759 73.1591C118.694 73.2952 119.518 73.4684 119.488 74.5572C119.453 75.7531 118.51 75.9841 117.519 75.9552C114.826 75.8727 112.699 74.6727 111.211 72.5818C110.503 71.5879 110.078 71.3033 108.938 72.0869C106.343 73.8767 103.268 74.219 100.12 74.4005H100.112Z" fill="white"/>
<path d="M111.172 50.4979C110.919 51.5289 111.275 53.0506 109.624 53.0094C108.089 52.9723 107.789 51.7021 107.904 50.4319C108.003 49.3431 108.037 47.9822 109.594 48.0482C111.069 48.1101 111.177 49.3761 111.172 50.4979Z" fill="white"/>
<path d="M86.5259 51.3431C87.0191 50.4317 86.3801 48.6625 88.1598 48.745C89.8066 48.8192 89.8409 50.3822 89.8838 51.5782C89.9224 52.6793 89.7037 53.9742 88.1856 53.8794C86.7274 53.7886 86.7961 52.4071 86.5259 51.3431Z" fill="white"/>
</g>
<defs>
<clipPath id="clip0_487_5536">
<rect width="263" height="265" fill="white" transform="translate(0 8)"/>
</clipPath>
</defs>
</svg>
